<svg width="44" height="40" viewBox="0 0 44 40" fill="none" xmlns="http://www.w3.org/2000/svg">
<path d="M20.938 22.938H23.063C27.99 22.938 32 18.928 32 14V8.937C32 4.009 27.99 0 23.063 0H20.938C16.009 0 12 4.009 12 8.938V14C12 18.928 16.009 22.938 20.938 22.938ZM16 8.938C16 6.215 18.215 4 20.938 4H23.063C25.785 4 28 6.215 28 8.938V14C28 16.723 25.785 18.938 23.062 18.938H20.937C18.215 18.938 16 16.723 16 14V8.938Z" fill="black"/>
<path d="M43.848 30.9245C43.847 30.9045 43.841 30.8855 43.84 30.8655C43.879 30.0485 43.419 29.2565 42.621 28.9225C37.895 26.9475 30.187 25.7695 22 25.7695C13.461 25.7695 5.879 26.9485 1.196 29.0025C0.405999 29.3485 -0.0399998 30.1445 0.0100002 30.9585C0.00900023 30.9945 0 31.0275 0 31.0635V34.9995C0 37.7565 2.243 39.9995 5 39.9995H39C41.757 39.9995 44 37.7565 43.999 34.9245L43.848 30.9245ZM39 35.9995H5C4.458 35.9995 4 35.5415 4 34.9995V32.1955C8.242 30.6685 14.822 29.7695 22 29.7695C28.904 29.7695 35.584 30.6785 39.892 32.1695L40 34.9995C40 35.5415 39.542 35.9995 39 35.9995Z" fill="black"/>
</svg>
