<svg width="40" height="36" viewBox="0 0 40 36" fill="none" xmlns="http://www.w3.org/2000/svg">
<path d="M38 0H2C0.896 0 0 0.896 0 2V10C0 11.104 0.896 12 2 12H2.144L3.5 30.082C3.544 33.353 6.219 36 9.5 36H30.5C33.781 36 36.455 33.353 36.499 30.082L37.855 12H38C39.104 12 40 11.104 40 10V2C40 0.896 39.104 0 38 0ZM4 4H36V8H4V4ZM32.506 29.851C32.502 29.9 32.5 29.95 32.5 30C32.5 31.103 31.603 32 30.5 32H9.5C8.397 32 7.5 31.103 7.5 30C7.5 29.95 7.498 29.9 7.495 29.851L6.156 12H33.845L32.506 29.851Z" fill="black"/>
<path d="M12 27C13.104 27 14 26.104 14 25V18C14 16.896 13.104 16 12 16C10.896 16 10 16.896 10 18V25C10 26.104 10.896 27 12 27Z" fill="black"/>
<path d="M20 27C21.104 27 22 26.104 22 25V18C22 16.896 21.104 16 20 16C18.896 16 18 16.896 18 18V25C18 26.104 18.896 27 20 27Z" fill="black"/>
<path d="M28 27C29.104 27 30 26.104 30 25V18C30 16.896 29.104 16 28 16C26.896 16 26 16.896 26 18V25C26 26.104 26.896 27 28 27Z" fill="black"/>
</svg>
