<svg width="64" height="65" viewBox="0 0 64 65" fill="none" xmlns="http://www.w3.org/2000/svg">
<path d="M40.7556 27.0565C40.7556 31.8603 36.8613 35.7546 32.0575 35.7546C27.2537 35.7546 23.3594 31.8603 23.3594 27.0565C23.3594 22.2527 27.2537 18.3584 32.0575 18.3584C36.8613 18.3584 40.7556 22.2527 40.7556 27.0565Z" stroke="#0007FF" stroke-width="4"/>
<path d="M60.3962 10.6981C60.3962 15.5019 56.5019 19.3962 51.6981 19.3962C46.8943 19.3962 43 15.5019 43 10.6981C43 5.89428 46.8943 2 51.6981 2C56.5019 2 60.3962 5.89428 60.3962 10.6981Z" stroke="#0007FF" stroke-width="4"/>
<path fill-rule="evenodd" clip-rule="evenodd" d="M59.9835 17.4663C62.5424 22.0662 64 27.3629 64 33C64 43.3616 59.0732 52.5732 51.4426 58.4182C46.0536 62.5461 39.3105 65 32 65C24.6895 65 17.9464 62.5461 12.5574 58.4182C4.92685 52.5732 0 43.3616 0 33C0 15.3269 14.3269 1 32 1C36.2286 1 40.2656 1.82019 43.9607 3.31017C43.0201 4.2949 42.2657 5.45889 41.7538 6.74569C38.7165 5.61686 35.4303 5 32 5C16.536 5 4 17.536 4 33C4 40.9823 7.33848 48.1841 12.701 53.2868C13.5635 50.9759 14.9827 48.3804 17.1021 46.0781C20.3344 42.5669 25.1773 39.7667 31.9854 39.717C38.8078 39.6672 43.6633 42.4535 46.9007 45.9849C49.0284 48.3059 50.449 50.9353 51.3096 53.2768C56.6659 48.1747 60 40.977 60 33C60 28.339 58.8611 23.9441 56.8465 20.0782C58.053 19.4146 59.1177 18.5249 59.9835 17.4663ZM43.9521 48.6879C46.1236 51.0567 47.3944 53.8442 47.9852 55.9918C43.4529 59.1493 37.945 61 32 61C26.057 61 20.5508 59.1505 16.0193 55.9949C16.6113 53.8852 17.8791 51.14 20.045 48.7872C22.5977 46.0143 26.4151 43.7578 32.0146 43.7169C37.5997 43.6762 41.4046 45.9089 43.9521 48.6879Z" fill="#0007FF"/>
<path d="M48.5 8L51.75 11M55 14L51.75 11M51.75 11L48.5 14L55 8" stroke="#0007FF" stroke-width="2" stroke-linecap="round" stroke-linejoin="round"/>
</svg>
