<svg width="37" height="40" viewBox="0 0 37 40" fill="none" xmlns="http://www.w3.org/2000/svg">
<path d="M6.5 23.99V2C6.5 0.896 5.604 0 4.5 0C3.396 0 2.5 0.896 2.5 2V23.99C1.025 24.729 0 26.24 0 28C0 29.76 1.025 31.271 2.5 32.01V38C2.5 39.104 3.396 40 4.5 40C5.604 40 6.5 39.104 6.5 38V32.01C7.975 31.271 9 29.76 9 28C9 26.24 7.975 24.729 6.5 23.99Z" fill="black"/>
<path d="M37 28C37 26.24 35.975 24.729 34.5 23.99V2C34.5 0.896 33.604 0 32.5 0C31.396 0 30.5 0.896 30.5 2V23.99C29.025 24.729 28 26.24 28 28C28 29.76 29.025 31.271 30.5 32.01V38C30.5 39.104 31.396 40 32.5 40C33.604 40 34.5 39.104 34.5 38V32.01C35.975 31.271 37 29.76 37 28Z" fill="black"/>
<path d="M20.5 5.99V2C20.5 0.896 19.604 0 18.5 0C17.396 0 16.5 0.896 16.5 2V5.99C15.025 6.729 14 8.24 14 10C14 11.76 15.025 13.271 16.5 14.01V38C16.5 39.104 17.396 40 18.5 40C19.604 40 20.5 39.104 20.5 38V14.01C21.975 13.271 23 11.76 23 10C23 8.24 21.975 6.729 20.5 5.99Z" fill="black"/>
</svg>
