<svg width="65" height="60" viewBox="0 0 65 60" fill="none" xmlns="http://www.w3.org/2000/svg">
<path d="M53.6711 16.7245C53.6711 21.1714 50.0662 24.7762 45.6194 24.7762C41.1725 24.7762 37.5677 21.1714 37.5677 16.7245M53.6711 16.7245C53.6711 12.2777 50.0662 8.67285 45.6194 8.67285C41.1725 8.67285 37.5677 12.2777 37.5677 16.7245M53.6711 16.7245H62.0806M37.5677 16.7245H3.27344" stroke="#0007FF" stroke-width="4" stroke-linecap="round"/>
<path d="M27.4304 42.9667C27.4304 47.4136 23.8256 51.0184 19.3787 51.0184C14.9319 51.0184 11.327 47.4136 11.327 42.9667M27.4304 42.9667C27.4304 38.5199 23.8256 34.915 19.3787 34.915C14.9319 34.915 11.327 38.5199 11.327 42.9667M27.4304 42.9667H62.5M11.327 42.9667H2.5" stroke="#0007FF" stroke-width="4" stroke-linecap="round"/>
</svg>
