<svg width="47" height="41" viewBox="0 0 47 41" fill="none" xmlns="http://www.w3.org/2000/svg">
<path d="M45.6983 17.8085L26.8308 1.5563L26.7374 1.4629C24.776 0.0618467 22.1607 0.0618467 20.1992 1.4629L20.1058 1.5563L1.2383 17.8085C0.491071 18.4623 0.397667 19.6766 1.05149 20.4238C1.70531 21.171 2.91956 21.2644 3.66678 20.6106L4.78763 19.6766V34.8079C4.78763 37.8902 7.30952 40.4121 10.3918 40.4121H36.5448C39.6271 40.4121 42.149 37.8902 42.149 34.8079V19.6766L43.2698 20.6106C43.6434 20.8908 44.017 21.0776 44.4841 21.0776C45.0445 21.0776 45.5115 20.8908 45.8851 20.4238C46.5389 19.6766 46.4455 18.5557 45.6983 17.8085ZM27.3912 36.676H19.5454V23.9731H27.3912V36.676ZM38.4128 17.3415V34.9013C38.4128 35.9287 37.5722 36.7694 36.5448 36.7694H31.1274V22.105C31.1274 21.0776 30.2868 20.237 29.2593 20.237H17.6773C16.6499 20.237 15.8092 21.0776 15.8092 22.105V36.7694H10.3918C9.36439 36.7694 8.52376 35.9287 8.52376 34.9013V16.5008L22.4409 4.45181C23.0947 4.07819 23.8419 4.07819 24.4957 4.45181L38.5062 16.5942C38.5062 16.7811 38.4128 17.0613 38.4128 17.3415Z" fill="black"/>
</svg>
