<svg width="40" height="40" viewBox="0 0 40 40" fill="none" xmlns="http://www.w3.org/2000/svg">
<path d="M20 0C9 0 0 9 0 20C0 31 9 40 20 40C31 40 40 31 40 20C40 9 31 0 20 0ZM20 36C11.2 36 4 28.8 4 20C4 11.2 11.2 4 20 4C28.8 4 36 11.2 36 20C36 28.8 28.8 36 20 36Z" fill="black"/>
<path d="M20 14.0001C21.1 14.0001 22 13.1001 22 12.0001C22 11.9001 22 11.7001 22 11.6001C22 11.5001 21.9 11.3001 21.9 11.2001C21.9 11.1001 21.8 11.0001 21.7 10.9001C21.6 10.8001 21.5 10.7001 21.4 10.6001C20.9 10.1001 20.2 9.90008 19.6 10.1001C19.5 10.1001 19.3 10.2001 19.2 10.2001C19.1 10.2001 19 10.3001 18.9 10.4001C18.8 10.5001 18.7 10.6001 18.6 10.7001C18.5 10.8001 18.4 10.9001 18.3 11.0001C18.2 11.1001 18.2 11.2001 18.1 11.3001C18 11.4001 18 11.6001 18 11.7001C18 11.8001 18 12.0001 18 12.1001C18 13.1001 18.9 14.0001 20 14.0001Z" fill="black"/>
<path d="M23 26.0009H22V19.0009C22 18.8009 22 18.7009 21.9 18.5009C22 18.1009 22 17.8009 21.9 17.4009C21.5 16.4009 20.4 15.8009 19.4 16.1009L16.4 17.1009C15.4 17.5009 14.8 18.6009 15.1 19.6009C15.4 20.4009 16.2 21.0009 17 21.0009C17.2 21.0009 17.4 21.0009 17.6 20.9009L18 20.8009V26.0009H17C15.9 26.0009 15 26.9009 15 28.0009C15 29.1009 15.9 30.0009 17 30.0009H23C24.1 30.0009 25 29.1009 25 28.0009C25 26.9009 24.1 26.0009 23 26.0009Z" fill="black"/>
</svg>
