<svg width="431" height="311" viewBox="0 0 431 311" fill="none" xmlns="http://www.w3.org/2000/svg">
<path d="M39.7301 3.81079V43.7608L96.8301 32.1208C96.8301 32.1208 91.1701 86.3908 86.4501 151.051C86.4501 151.051 115.77 150.171 131.7 152.471C131.7 152.471 124.27 42.2208 122.85 32.3108C122.85 32.3108 189.18 30.7608 212.9 34.3008V2.4408C212.9 2.4408 158.6 1.86078 112.59 1.86078C74.3601 1.86078 39.7401 3.81079 39.7401 3.81079H39.7301Z" fill="#E13038"/>
<path d="M241.96 74.2508C241.96 74.2508 245.69 109.801 241.96 152.461H219.86C219.86 152.461 231.7 124.241 214.17 74.2508H241.96Z" fill="#E13038"/>
<path d="M226.77 63.6008C233.718 63.6008 239.35 59.6206 239.35 54.7108C239.35 49.801 233.718 45.8208 226.77 45.8208C219.822 45.8208 214.19 49.801 214.19 54.7108C214.19 59.6206 219.822 63.6008 226.77 63.6008Z" fill="#E13038"/>
<path d="M137.59 40.3208L141.39 152.461H160.69C160.69 152.461 155.89 108.471 171.71 111.481C187.53 114.491 171.13 152.461 171.13 152.461H215.11C215.11 152.461 223.65 70.4208 160.37 83.7108V40.9708L137.59 40.3208Z" fill="#E13038"/>
<path d="M234.38 3.26079V31.8408C234.38 31.8408 244.76 27.2308 247.59 46.3308C253.37 85.3808 248.11 152.511 248.11 152.511H281.88C281.88 152.511 272.23 81.9508 274.83 56.7108C277.43 31.4708 285.24 32.2108 288.56 32.5908C298.37 33.7008 299.32 55.6008 295.61 63.7708H321.96C321.96 63.7708 332.91 15.3308 298.21 5.50078C272.38 -1.81922 265.55 18.1208 265.55 18.1208C265.55 18.1208 258.13 -3.77923 234.37 3.27077L234.38 3.26079Z" fill="#E13038"/>
<path d="M329.18 63.6608C325.55 84.6808 323.77 83.1408 323.77 83.1408C323.77 83.1408 289.61 86.6808 284.33 114.461C280.48 134.741 288.9 160.061 334.74 147.551L336.51 152.511H359.93C359.93 152.511 349.08 128.091 349.08 92.6908C349.08 73.1108 355.29 0.800781 355.29 0.800781L330.21 2.92081C330.21 2.92081 332.24 46.0108 329.19 63.6508L329.18 63.6608ZM328.73 118.881C330.06 127.041 333.08 131.261 326.08 132.921C317.85 134.871 311.21 129.931 310.74 123.961C310.15 116.411 310.99 110.381 317.89 107.861C329.37 103.671 327.41 110.821 328.74 118.881H328.73Z" fill="#E13038"/>
<path d="M134.7 307.971H171.25C171.25 307.971 163.96 257.881 174.48 194.441L150.28 194.341C150.28 194.341 160.14 235.401 134.7 307.971Z" fill="#E13038"/>
<path d="M98.6501 160.671C66.9001 158.771 0.0800781 165.901 0.0800781 165.901V204.021L38.8901 196.871C38.8901 196.871 42.7001 263.201 26.6901 307.981H77.4701L67.8601 249.821C67.8601 249.821 144.38 257.151 144.51 207.941C144.59 174.851 131 162.611 98.6501 160.671ZM74.5701 227.291C63.1201 227.291 67.8801 218.011 67.8801 206.571C67.8801 195.131 63.1201 185.841 74.5701 185.841C86.0201 185.841 95.2901 195.121 95.2901 206.571C95.2901 218.021 86.0101 227.291 74.5701 227.291Z" fill="#E13038"/>
<path d="M242.13 175.661C225.98 160.981 210.02 159.131 137.82 165.381C137.82 165.381 146.99 174.971 149.77 189.741C149.77 189.741 204.89 178.591 222.54 189.921C238.75 200.321 230.47 224.111 217.81 226.651C194.31 231.371 190.41 233.541 183.13 240.531C170.15 253.001 171.63 296.041 187.91 305.831C204.19 315.621 223.19 307.511 232.06 303.011L232.77 309.471L258.62 309.111C258.62 309.111 253.33 284.461 253.82 252.711C254.24 226.111 260.3 192.171 242.13 175.651V175.661ZM222.92 272.011C216.69 278.661 208.14 278.321 205.9 274.441C202.3 268.181 205.97 261.501 212.82 256.121C219.67 250.721 228.73 247.751 230.71 254.901C232.39 261.001 228.32 266.241 222.92 272.011Z" fill="#E13038"/>
<path d="M311.32 195.441C311.32 195.441 252.5 181.121 259.12 256.231C266.01 334.391 320.68 303.351 320.68 303.351C320.68 303.351 310.98 284.231 310.04 255.361C310.04 255.361 275.96 266.461 278.41 230.841C279.76 211.201 309.43 218.921 309.43 218.921L311.32 195.451V195.441Z" fill="#E13038"/>
<path d="M354.84 237.651C372.18 229.411 404.61 237.351 408.24 208.341C413.1 169.441 392.19 158.101 362.88 160.641C338 162.801 328.38 174.821 323.35 191.471C311.86 229.521 317.78 263.521 328.26 288.881C343.7 326.261 430.91 303.181 430.91 303.181V260.781C430.91 260.781 354.65 307.781 344.09 266.581C342.03 258.531 341.23 244.111 354.84 237.641V237.651ZM352.77 187.521C362.16 181.121 377.97 185.521 379.63 190.831C382.31 199.431 381.2 205.041 371.41 209.741C361.61 214.451 344.01 214.821 343.54 205.591C343.14 197.711 344.65 193.081 352.77 187.531V187.521Z" fill="#E13038"/>
</svg>
