<svg width="40" height="40" viewBox="0 0 40 40" fill="none" xmlns="http://www.w3.org/2000/svg">
<path d="M39.3106 35.9835L29.6435 26.3165C31.7047 23.5659 32.9412 20.1647 32.9412 16.4706C32.9412 7.38824 25.5529 0 16.4706 0C7.38824 0 0 7.38824 0 16.4706C0 25.5529 7.38824 32.9412 16.4706 32.9412C20.1647 32.9412 23.5659 31.7047 26.3165 29.6435L35.9835 39.3106C36.4435 39.7706 37.0447 40 37.6471 40C38.2494 40 38.8506 39.7706 39.3106 39.3106C40.2294 38.3918 40.2294 36.9024 39.3106 35.9835ZM4.70588 16.4706C4.70588 9.98353 9.98353 4.70588 16.4706 4.70588C22.9576 4.70588 28.2353 9.98353 28.2353 16.4706C28.2353 22.9576 22.9576 28.2353 16.4706 28.2353C9.98353 28.2353 4.70588 22.9576 4.70588 16.4706Z" fill="black"/>
</svg>
