<svg width="41" height="41" viewBox="0 0 41 41" fill="none" xmlns="http://www.w3.org/2000/svg">
<path d="M40.3429 32.3277L26.3482 4.25749C25.3485 2.25248 23.2493 0.949219 20.9502 0.949219C18.6511 0.949219 16.6518 2.25248 15.5522 4.25749L1.55747 32.3277C0.657805 34.2324 0.757768 36.4379 1.85736 38.1422C2.95694 39.9467 4.85623 40.9492 6.95544 40.9492H34.9449C37.0442 40.9492 38.9435 39.8465 40.043 38.1422C41.1426 36.4379 41.2426 34.2324 40.3429 32.3277ZM36.6443 36.0369C36.4444 36.3377 35.9446 37.0394 34.9449 37.0394H6.95544C5.95582 37.0394 5.45601 36.3377 5.25608 36.1372C5.05616 35.8364 4.75627 35.1347 5.15612 34.2324L19.1509 6.16225C19.4508 5.4605 20.1505 5.05949 20.9502 5.05949C21.7499 5.05949 22.3497 5.4605 22.7495 6.16225L36.7443 34.2324C37.1441 35.0344 36.8442 35.7362 36.6443 36.0369Z" fill="black"/>
<path d="M20.9504 27.0136C22.05 27.0136 22.9497 26.1113 22.9497 25.0086V14.9835C22.9497 13.8808 22.05 12.9785 20.9504 12.9785C19.8508 12.9785 18.9512 13.8808 18.9512 14.9835V25.0086C18.9512 26.1113 19.8508 27.0136 20.9504 27.0136Z" fill="black"/>
<path d="M22.7491 30.2222C22.7491 30.122 22.6492 30.0217 22.5492 29.9215C22.4492 29.8212 22.4492 29.721 22.2493 29.6207C21.7495 29.1195 21.1497 28.919 20.45 29.0192C20.35 29.0192 20.1501 29.1195 20.0501 29.1195C19.9502 29.1195 19.8502 29.2197 19.7503 29.32C19.6503 29.4202 19.5503 29.4202 19.4504 29.6207C19.3504 29.721 19.2504 29.8212 19.1505 29.9215C19.0505 30.0217 19.0505 30.122 18.9506 30.2222C18.9506 30.3225 18.8506 30.4227 18.8506 30.6232C18.8506 30.7235 18.8506 30.924 18.8506 31.0242C18.8506 31.5255 19.0505 32.0267 19.4504 32.4277C19.8502 32.8287 20.35 33.0292 20.8498 33.0292C20.9498 33.0292 21.1497 33.0292 21.2497 33.0292C21.3497 33.0292 21.5496 32.929 21.6495 32.929C21.7495 32.929 21.8495 32.8287 21.9494 32.7285C22.0494 32.6282 22.1494 32.6282 22.2493 32.4277C22.6492 32.0267 22.8491 31.5255 22.8491 31.0242C22.8491 30.924 22.8491 30.7235 22.8491 30.6232C22.8491 30.4227 22.8491 30.3225 22.7491 30.2222Z" fill="black"/>
</svg>
