<svg width="64" height="64" viewBox="0 0 64 64" fill="none" xmlns="http://www.w3.org/2000/svg">
<path d="M2 4.54348V2.54348C0.895431 2.54348 0 3.43891 0 4.54348H2ZM2 62H0C0 63.1046 0.895431 64 2 64L2 62ZM42.7143 62V64C43.2133 64 43.6943 63.8134 44.0628 63.477L42.7143 62ZM58.7857 47.3261L60.1343 48.8031C60.5493 48.4241 60.7857 47.8881 60.7857 47.3261H58.7857ZM42.7143 47.3261V45.3261C41.6097 45.3261 40.7143 46.2215 40.7143 47.3261H42.7143ZM54.5 2C54.5 0.895431 53.6046 0 52.5 0C51.3954 0 50.5 0.895431 50.5 2H54.5ZM50.5 17.7174C50.5 18.822 51.3954 19.7174 52.5 19.7174C53.6046 19.7174 54.5 18.822 54.5 17.7174H50.5ZM42.7143 8.08696C41.6097 8.08696 40.7143 8.98239 40.7143 10.087C40.7143 11.1915 41.6097 12.087 42.7143 12.087V8.08696ZM62 12.087C63.1046 12.087 64 11.1915 64 10.087C64 8.98239 63.1046 8.08696 62 8.08696V12.087ZM37.5 2.54348H2V6.54348H37.5V2.54348ZM0 4.54348V62H4V4.54348H0ZM2 64H42.7143V60H2V64ZM44.0628 63.477L60.1343 48.8031L57.4372 45.8491L41.3657 60.523L44.0628 63.477ZM60.7857 47.3261V23.7826H56.7857V47.3261H60.7857ZM43.4286 20.413H24.4286V24.413H43.4286V20.413ZM43.4286 31.4348H13.7857V35.4348H43.4286V31.4348ZM44.7143 62V47.3261H40.7143V62H44.7143ZM42.7143 49.3261H58.7857V45.3261H42.7143V49.3261ZM50.5 2V17.7174H54.5V2H50.5ZM42.7143 12.087H62V8.08696H42.7143V12.087Z" fill="#0007FF"/>
</svg>
