<svg width="33" height="41" viewBox="0 0 33 41" fill="none" xmlns="http://www.w3.org/2000/svg">
<path d="M29.8897 36.2305H2.44747C1.36546 36.2305 0.487305 37.1179 0.487305 38.2114C0.487305 39.3049 1.36546 40.1923 2.44747 40.1923H29.8897C30.9717 40.1923 31.8499 39.3049 31.8499 38.2114C31.8499 37.1179 30.9717 36.2305 29.8897 36.2305Z" fill="black"/>
<path d="M5.08938 32.4628C7.5974 32.4628 12.1009 31.6615 13.8023 29.943L30.4352 13.1338C32.7286 10.8171 32.7286 7.0464 30.4352 4.7297L27.6626 1.92866C26.5551 0.80943 25.0781 0.193359 23.5051 0.193359C21.9321 0.193359 20.4551 0.80943 19.3476 1.92866L15.2567 6.06188C15.2361 6.08168 15.2107 6.09654 15.1911 6.11635C15.1705 6.13715 15.1568 6.16092 15.1381 6.18172L2.71366 18.7379C1.19356 20.2741 0.548664 23.7605 0.386951 24.7926C-0.11583 28.0017 0.200735 30.2065 1.32685 31.3435C2.08347 32.1082 3.27819 32.4628 5.08938 32.4628ZM22.1183 4.7297C22.8533 3.98784 24.1549 3.98685 24.8899 4.7297L27.6626 7.53074C28.4261 8.3033 28.4261 9.5602 27.6626 10.3328L24.9154 13.109C22.2378 10.3268 20.5433 8.5737 19.4162 7.46041L22.1183 4.7297ZM5.48631 21.5389L16.6239 10.2832C17.9725 11.6313 20.1797 13.8945 22.1369 15.919L11.0345 27.137C10.4612 27.663 7.50625 28.5009 5.08938 28.5009C4.63364 28.5009 4.32982 28.4692 4.13968 28.4365C3.80253 26.9171 4.63168 22.461 5.48631 21.5389Z" fill="black"/>
</svg>
