<?xml version="1.0" encoding="UTF-8"?>
<svg id="Layer_3" data-name="Layer 3" xmlns="http://www.w3.org/2000/svg" viewBox="0 0 900 900">
  <defs>
    <style>
      .cls-1 {
        fill: #bedc46;
      }

      .cls-1, .cls-2, .cls-3 {
        stroke-width: 0px;
      }

      .cls-2 {
        fill: #dc5580;
      }

      .cls-3 {
        fill: #fff;
      }
    </style>
  </defs>
  <path class="cls-1" d="M746.44,466.78c-28.5,88.31-80.27,137.9-159.89,172.56-.21.11-.43.2-.66.29l-.59-.02c-136.4,58.42-295.9,9.85-296.14,9.73-21.95-10.35-42.4-24.01-60.33-41.74-39.75-39.29-68.61-95.53-82.91-148.85-11.37-42.42-10.78-93.38,3.06-135.31,13.31-40.37,45.72-70.62,77.88-96.68,54.37-44.06,119.21-58.41,187.73-61.52,74.86-3.42,163.59,14.56,228.13,53.65,41.29,25,80.15,62.14,102.2,105.66,22.81,45.04,16.36,96.23,1.52,142.23Z"/>
  <path class="cls-2" d="M585.31,639.62c.24-22.87-1.24-45.86-6.02-68.23-16.13-77.68-69.83-115.66-148.24-110.22-25.58,1.74-51.01,7.32-74.87,16.76-10.5,4.31-19.94,10.9-27.93,18.95-29.76,31.27-40.27,76.4-40.63,118.57-.01,11.43.95,22.85,2.87,34.12l-.59.11c42.2,19.74,89.94,27.35,136.04,28.14,69.75,1.17,123.6-23.14,151.64-34.67,2.82-1.16,5.6-2.33,8.34-3.52l-.59-.02ZM567.85,619.26l-3.17,17.8c-5.5,3.36-12.3-4.21-12.55-10.65-1.3-33.7-7.57-55.75-24.62-81.36-7.45-11.19-26.71-26.06-38.81-34.21-16.57-11.37-27.8-19.41-46.98-22.47-21.16-3.37-45.03,3.29-66.38,6.59-3.73.58-5.33-4.55-1.93-6.2,7.39-3.59,15.32-7,20.77-8.13,32.21-6.61,67.83-5.41,93.67,4.51,14.45,5.55,28.25,21.46,39.33,30.98,19.82,17.04,26.67,29.67,33.17,63.9,3.94,19.59,7.83,19.31,7.5,39.25Z"/>
  <path class="cls-3" d="M586.8,639.38c1.14.23,2.67.5,3.77.85,0,0-4.15,3.51-4.15,3.51-.42,1.71-.52-3.06-.53-3.85,0,0,.01-.5.01-.5.16-.19.39-.29.63-.2,0,0-.48.4-.48.4.04-.12.14-.2.25-.27,0,0,.49.07.49.07h0Z"/>
  <path class="cls-2" d="M539.96,324.6c-9.19-17.23-23.92-30.68-39.81-41.77-21.13-14.97-45.86-25.8-72.05-26.04-38.31-.69-79.49,18.86-95.78,54.89-9.19,21.57-13.28,54.6.38,74.98,15.83,21.56,45.63,24.64,70.33,27.66,12.96,1.4,26.06,2.15,39.01,4.33,25.37,3.95,52.9,1.94,75.65-10.66,31.22-17.47,38.63-52.63,22.26-83.38ZM526.92,360.19c-2.28,17.86-17.88,35.97-34.9,40.6,0,0,14.95-16.3,17.62-23.74,4.75-13.28,3.85-27.01-2.04-41.62-4.39-10.9-8.43-18.75-16.85-26.81-8.87-8.49-18.51-9.25-28.95-15.29-10.48-5.77-21.82-10.04-33.63-12.06-3.94-.63-2.2-3.12-2.2-3.12,13.21-2.85,23.31-2.38,35.99,1.76,11.6,3.78,21.24,10.34,31,17.31,13.62,9.46,19.86,17.15,25.87,32.34,3.6,9.12,9.66,20.27,8.09,30.64Z"/>
</svg>