<?xml version="1.0" encoding="UTF-8"?>
<svg id="Layer_2" data-name="Layer 2" xmlns="http://www.w3.org/2000/svg" viewBox="0 0 900 850">
  <defs>
    <style>
      .cls-1 {
        fill: #bedc46;
      }

      .cls-1, .cls-2 {
        stroke-width: 0px;
      }

      .cls-2 {
        fill: #80609d;
      }
    </style>
  </defs>
  <g id="Layer_2-2" data-name="Layer 2">
    <g>
      <path class="cls-1" d="M8.97,354.02C49.18,212.37,109.73,117.52,218.43,59.59c5.35-2.84,10.81-5.64,16.34-8.38.32-.19.64-.34.98-.49l.88.03C407.46-32.43,547.33,7.91,603.72,24.17c190.8,55.01,280.46,225.07,292.49,320.65,9.15,72.79,1.33,155.41-19.18,225.97-19.71,67.96-61.95,130.98-109.57,174.84-80.52,74.16-176.54,98.31-278.02,103.55-110.87,5.74-247.07-18.02-337.85-90.3C-4.77,634.39-12.99,431.45,8.97,354.02Z"/>
      <g>
        <path class="cls-2" d="M334.44,323.08s-.03.05-.05.07c.16-.03.2-.06.05-.07Z"/>
        <path class="cls-2" d="M334.39,323.15s-.05,0-.07.01c-.09.17-.04.13.07-.01Z"/>
        <g>
          <path class="cls-2" d="M534.17,516.48v-.02s-.04-.06-.09-.08c-.04-.06-.11-.15-.17-.23-.19-.23-.43-.53-.51-.63-.45-.55-.9-1.1-1.37-1.65-.9-1.06-1.8-2.09-2.72-3.13-8.31-9.27-17.38-17.94-26.68-26.21-4.32-3.82-8.7-7.53-13.23-11.06-.62-.48-1-.78-2.22-1.66-.3-.21-.6-.42-.9-.63-.51-.38-1.03-.74-1.56-1.09-1.02-.68-2.06-1.32-3.12-1.91-3.37,12.25-4.64,14.83-7.88,28.81-1.65,7.14-6.14,27.96-9.12,41.5l-.62,1.91c21.91-5.41,17.83-3.95,39.24-9.55,4.92-1.29,24.08-6.47,33.83-10.18-.86-1.46-1.83-2.85-2.86-4.17Z"/>
          <path class="cls-2" d="M726.02,198.85c-11.19,10.42-21.02,21.33-31.52,32.43-39.87,42.17-50.44,53.62-88.59,97.37-18.44,21.15-96.3,106.81-116.33,128.45,1.59.86,3.14,1.81,4.64,2.88,2.32,1.63,4.56,3.41,6.75,5.15,9.96,7.85,19.35,16.51,28.33,25.46,4.27,4.23,8.43,8.56,12.37,13.09,1.25,1.42,3.94,6.62,5.32,5.3,6.35-6.06,91.33-102.89,120.99-139.25,25.54-31.31,42.9-51.78,70.51-81.17,8.74-9.3,27-30.76,37.16-42.68-1.51-33.29-21.45-44.28-49.63-47.04ZM528.82,455.85c-3.77,5.73-13.07.43-9.27-5.33,6.57-10,15.61-17.73,24.22-25.89,9.22-8.74,18.24-17.71,27.1-26.82,25.65-26.4,49.13-54.78,73.6-82.24,25.2-28.28,50.76-56.37,78.01-82.69,4.95-4.79,12.58,2.72,7.62,7.51-15.1,14.59-29.61,29.78-43.9,45.16-23.59,25.38-46.55,51.34-69.21,77.55-14,16.2-28.39,32.01-43.43,47.25-7.9,8.01-15.89,15.94-24.11,23.61-7.31,6.82-15.09,13.47-20.63,21.89ZM749.37,250.49c-17.65,20.43-36.3,39.99-54.02,60.36-15.64,17.98-30.9,36.24-46.97,53.84-15.56,17.04-31.36,33.87-46.7,51.12-10.54,11.85-21.14,23.6-31.88,35.27-4.99,5.42-9.98,10.84-14.83,16.38-1.77,2.03-3.52,4.08-5.21,6.17-.14.18-.28.36-.43.54-.2.27-.4.54-.59.82-.32.47-.63.94-.87,1.46-1.19,2.65-4.99,3.3-7.3,1.97-2.68-1.54-3.15-4.67-1.97-7.3.87-1.94,2.45-3.65,3.77-5.28,1.94-2.42,3.99-4.76,6.04-7.09,5.68-6.44,11.52-12.75,17.35-19.06,11.27-12.2,22.22-24.64,33.32-36.99,15.55-17.3,31.5-34.24,47.11-51.48,15.97-17.63,31.03-36.03,46.79-53.85,16.13-18.24,32.85-35.95,48.77-54.38,1.9-2.2,5.61-1.98,7.56-.05,2.15,2.12,1.94,5.38.05,7.56Z"/>
        </g>
        <g>
          <path class="cls-2" d="M281.53,318.21c2.97-.13,34.92,2.27,47.73,3.21,2.87.21,5.33-2.02,5.39-4.9.25-11.05.76-62.45.64-68.38-.16-8.27-.48-16.54-.41-24.82.17-19.67,1.15-7.57,1.52-27.25-19.93,9.24-48.77,27.31-68.99,42.5-25.6,19.25-72.78,68.69-88.65,84.49,24.6-.52,62.7-3.17,102.76-4.86Z"/>
          <path class="cls-2" d="M579.48,489.73c-8.25,9.7-16.5,19.4-24.68,29.12-2.79,3.29-5.55,6.59-8.29,9.91-.94,1.13-1.82,2.35-2.81,3.43-1.77,1.94-4.33,2.81-6.7,3.76-12.07,4.79-24.93,7.93-37.46,11.15-14.42,3.71-28.96,6.8-43.46,10.28-4.03.97-8.53-2.76-7.07-7.1,1.43-4.26,2.21-8.76,3.18-13.13,4.4-19.42,8.66-38.78,14.38-57.86.83-2.76,1.64-5.53,2.42-8.29.74-2.67,1.13-5.32,3.02-7.44.92-1.04,159.82-184.9,170.61-196.57.14-26.25,1.32-37.83-2.24-69.79,0,0-292.29-1.89-292.31-.72-.44,25.79-.88,13.21-.53,39.01.12,9.03.51,18.05.43,27.08-.04,4.71-.39,9.44-.31,14.15.06,3.64.29,33.59.2,37.22-.18,7.64-1.64,17.14-9.89,20.06-7.37,2.6-47.28-3-53.7-3.09-12.12-.18-24.23-.26-36.34.25-23.48,1-46.88,3.43-70.38,3.8,1.66,72.73,7.03,260.55,7,333.38l460.82-9.97c.69-68.34-3.93-188.85-4.95-240.19-20.27,23.88-40.61,47.7-60.91,71.57ZM234.2,469.21c-1.84-5.69,102.2-12.65,128.85-12.62,29.27.04,75.31,4.06,75.58,10.12.29,6.37-5.5,11.31-11.52,11.52-16.31.56-8.94,1.08-25.26,1.3-29.1.39-58.22.1-87.33-.05-11.54-.06-23.03-.48-34.56-.9-5.96-.21-11.93-.34-17.89-.14-2.78.09-12.4-1.47-13.69-1.19-6.32,1.36-12.16-1.83-14.17-8.05ZM408.68,549.01c-12.29,0-24.58,0-36.87,0-21.35,0-42.7-.1-64.05-.11-10.43,0-65,7.34-66.72,3.7-.9-1.9-.28-4.39,1.16-6.08,1.66-1.94,26.51-5.11,36.1-5.23,43.44-.51,86.93-8.06,130.38-8.06,6.46,0,11.24,3.61,11.52,7.89.28,4.26-5.49,7.89-11.52,7.89ZM307.44,375.21c70.98.86,82.72,4.18,153.61,7.79,21.92,1.12,27.5,13.32,3.87,15.6-6.2.6-145.97.78-216.91-1.71-6.46-.23-11.23-5.1-11.52-11.52-.27-6.07,51.13-10.39,70.94-10.15Z"/>
        </g>
      </g>
    </g>
  </g>
</svg>