<?xml version="1.0" encoding="UTF-8"?>
<svg id="Layer_2" data-name="Layer 2" xmlns="http://www.w3.org/2000/svg" viewBox="0 0 900 900">
  <defs>
    <style>
      .cls-1 {
        fill: #dde3d5;
      }

      .cls-1, .cls-2 {
        stroke-width: 0px;
      }

      .cls-2 {
        fill: #e13038;
      }
    </style>
  </defs>
  <path class="cls-2" d="M508.58,24.4c-99.53-9.38-177.7,11.13-218.85,26.8-124.32,47.33-204.75,105.39-255.63,250.58-25.55,72.93-30.3,214.85-1.95,290.27,27.37,72.83,81.55,137.38,138.18,182.3,88.52,70.22,175.94,78.45,283.2,80.96,98.18,2.29,202.26-15.02,284.1-80.58,48.39-38.77,103.17-92.05,126.02-156.02,23.72-66.43,29.55-173.83,17.31-243.76-15.39-87.89-44.33-147.8-97.41-215.7-70.12-89.71-174.46-125.37-274.96-134.84Z"/>
  <path class="cls-1" d="M154.34,308.78c50.74,39.25,129.18,91.37,186.68,119.83-50.05,54.81-124.55,125.59-164.81,187.94,42.97,29.14,85.94,58.29,128.91,87.43,40.56-57.51,145.72-192.3,153.2-193.38,8.6-1.24,138.75,132.44,182.89,193.38,34.81-53.23,76.84-110.72,111.65-163.94-48.58-39.53-82.2-38.2-176.18-124.04,61.53-63.88,74.9-79.91,136.43-143.79-20.18-17.67-58.34-71.34-110.83-98.62-64.49,58.71-91.2,99.99-148.77,164.12-40.25-26.52-163.04-145.82-207.1-146.59-20.69-.36-96.36,114.36-92.08,117.67Z"/>
</svg>