<?xml version="1.0" encoding="UTF-8"?>
<svg id="Layer_1" data-name="Layer 1" xmlns="http://www.w3.org/2000/svg" viewBox="0 0 900 900">
  <defs>
    <style>
      .cls-1 {
        fill: #e13038;
        stroke-width: 0px;
      }
    </style>
  </defs>
  <g>
    <path class="cls-1" d="M282.73,300.81v39.95l57.1-11.64s-5.66,54.27-10.38,118.93c0,0,29.32-.88,45.25,1.42,0,0-7.43-110.25-8.85-120.16,0,0,66.33-1.55,90.05,1.99v-31.86s-54.3-.58-100.31-.58c-38.23,0-72.85,1.95-72.85,1.95Z"/>
    <path class="cls-1" d="M457.18,371.25h27.78s3.73,35.55,0,78.21h-22.1s11.84-28.22-5.69-78.21Z"/>
    <ellipse class="cls-1" cx="469.77" cy="351.71" rx="12.58" ry="8.89"/>
    <path class="cls-1" d="M380.59,337.32l3.8,112.14h19.3s-4.8-43.99,11.02-40.98c15.82,3.01-.58,40.98-.58,40.98h43.98s8.54-82.04-54.74-68.75v-42.74l-22.78-.65Z"/>
    <path class="cls-1" d="M477.38,300.26v28.58s10.38-4.61,13.21,14.49c5.78,39.05.52,106.18.52,106.18h33.77s-9.65-70.56-7.05-95.8c2.6-25.24,10.41-24.5,13.73-24.12,9.81,1.11,10.76,23.01,7.05,31.18h26.35s10.95-48.44-23.75-58.27c-25.83-7.32-32.66,12.62-32.66,12.62,0,0-7.42-21.9-31.18-14.85Z"/>
    <path class="cls-1" d="M572.18,360.66c-3.63,21.02-5.41,19.48-5.41,19.48,0,0-34.16,3.54-39.44,31.32-3.85,20.28,4.57,45.6,50.41,33.09l1.77,4.96h23.42s-10.85-24.42-10.85-59.82c0-19.58,6.21-91.89,6.21-91.89l-25.08,2.12s2.03,43.09-1.02,60.73ZM571.73,415.88c1.33,8.16,4.35,12.38-2.65,14.04-8.23,1.95-14.87-2.99-15.34-8.96-.59-7.55.25-13.58,7.15-16.1,11.48-4.19,9.52,2.96,10.85,11.02Z"/>
  </g>
  <g>
    <path class="cls-1" d="M377.7,604.97h36.55s-7.29-50.09,3.23-113.53l-24.2-.1s9.86,41.06-15.58,113.63Z"/>
    <path class="cls-1" d="M341.65,457.67c-31.75-1.9-98.57,5.23-98.57,5.23v38.12l38.81-7.15s3.81,66.33-12.2,111.11h50.78l-9.61-58.16s76.52,7.33,76.65-41.88c.08-33.09-13.51-45.33-45.86-47.27ZM317.57,524.29c-11.45,0-6.69-9.28-6.69-20.72s-4.76-20.73,6.69-20.73,20.72,9.28,20.72,20.73-9.28,20.72-20.72,20.72Z"/>
    <path class="cls-1" d="M485.13,472.66c-16.15-14.68-32.11-16.53-104.31-10.28,0,0,9.17,9.59,11.95,24.36,0,0,55.12-11.15,72.77.18,16.21,10.4,7.93,34.19-4.73,36.73-23.5,4.72-27.4,6.89-34.68,13.88-12.98,12.47-11.5,55.51,4.78,65.3s35.28,1.68,44.15-2.82l.71,6.46,25.85-.36s-5.29-24.65-4.8-56.4c.42-26.6,6.48-60.54-11.69-77.06ZM465.92,569.01c-6.23,6.65-14.78,6.31-17.02,2.43-3.6-6.26.07-12.94,6.92-18.32,6.85-5.4,15.91-8.37,17.89-1.22,1.68,6.1-2.39,11.34-7.79,17.11Z"/>
    <path class="cls-1" d="M554.32,492.44s-58.82-14.32-52.2,60.79c6.89,78.16,61.56,47.12,61.56,47.12,0,0-9.7-19.12-10.64-47.99,0,0-34.08,11.1-31.63-24.52,1.35-19.64,31.02-11.92,31.02-11.92l1.89-23.47Z"/>
    <path class="cls-1" d="M597.84,534.65c17.34-8.24,49.77-.3,53.4-29.31,4.86-38.9-16.05-50.24-45.36-47.7-24.88,2.16-34.5,14.18-39.53,30.83-11.49,38.05-5.57,72.05,4.91,97.41,15.44,37.38,102.65,14.3,102.65,14.3v-42.4s-76.26,47-86.82,5.8c-2.06-8.05-2.86-22.47,10.75-28.94ZM595.77,484.52c9.39-6.4,25.2-2,26.86,3.31,2.68,8.6,1.57,14.21-8.22,18.91-9.8,4.71-27.4,5.08-27.87-4.15-.4-7.88,1.11-12.51,9.23-18.06Z"/>
  </g>
</svg>