<?xml version="1.0" encoding="UTF-8"?>
<svg id="Layer_2" data-name="Layer 2" xmlns="http://www.w3.org/2000/svg" viewBox="0 0 900 865.07">
  <defs>
    <style>
      .cls-1 {
        fill: #bedc46;
      }

      .cls-1, .cls-2 {
        stroke-width: 0px;
      }

      .cls-2 {
        fill: #7f609c;
      }
    </style>
  </defs>
  <g id="Layer_2-2" data-name="Layer 2">
    <g>
      <path class="cls-1" d="M430.78,1.66c-99.34,8.59-180.75,40.05-217.96,64.04C100.4,138.17,24.86,230.6,3.68,391.81c-10.64,80.97,1.18,170.93,43.82,244.54,41.18,71.09,104.82,128.75,169.15,165.25,100.55,57.06,230.69,74.31,336.23,57.1,96.61-15.75,185.46-50.17,252.68-133.84,39.75-49.47,78.92-106.16,88.67-177.27,10.13-73.84,8.45-162.19-17.34-233.04-32.41-89.05-77.76-155.32-143.14-216.5C647.37,17.21,531.08-7.01,430.78,1.66Z"/>
      <g>
        <path class="cls-2" d="M631.97,261.11c-16.68-21.7-37.69-39.35-60.73-52.69-30.15-17.46-63.44-27.11-97.53-29.45-26.98-1.86-52.51-10.87-79.91-10.04-55.43,1.69-110.57,28.29-146.38,74.31-50.29,64.6-59.01,163.08-20.96,236.75,29.03,56.21,81.35,95.62,137.87,116.49,28.84,10.63,59.18,16.93,89.65,16.93,77.62,0,155.25-44.73,193.77-117.26,38.54-72.53,33.69-170.64-15.78-235.04ZM586.1,465.26c-27.21,51.21-82,82.78-136.8,82.78-21.52,0-42.92-4.45-63.27-11.95-39.92-14.73-76.85-42.55-97.34-82.24-26.87-52-20.71-121.52,14.8-167.12,25.29-32.48,64.2-51.27,103.34-52.45,19.34-.58,37.36,5.76,56.39,7.08,24.07,1.66,47.57,8.49,68.86,20.8,16.27,9.41,31.11,21.86,42.87,37.19,34.93,45.45,38.36,114.72,11.15,165.91Z"/>
        <path class="cls-2" d="M581.83,530.17c-10.42,28.23-30.23,34.3-56.8,44.53-2.63,1.01,56.19,78.47,95.83,127,14.12,17.28,26.61,26.74,42.26,11.06,7.41-7.42,20.95-16.07,22.5-17.93,5.47-6.56,3.54-16.65-10.95-38.84-31.37-48-60.93-77.39-92.85-125.83Z"/>
      </g>
    </g>
  </g>
</svg>