<?xml version="1.0" encoding="UTF-8"?>
<svg id="Layer_2" data-name="Layer 2" xmlns="http://www.w3.org/2000/svg" viewBox="0 0 277.96 297.89">
  <defs>
    <style>
      .cls-1 {
        fill: #dc5580;
        stroke-width: 0px;
      }
    </style>
  </defs>
  <g id="Layer_2-2" data-name="Layer 2">
    <g>
      <path class="cls-1" d="M61.8,74.39c1.76-.08,20.75,1.39,28.36,1.96,1.7.13,3.17-1.23,3.2-2.98.15-6.73.45-38.04.38-41.65-.1-5.04-.29-10.07-.24-15.12.1-11.98.68-4.61.9-16.6-11.84,5.63-28.98,16.63-40.99,25.89C38.2,37.61,10.17,67.72.74,77.35c14.61-.32,37.25-1.93,61.05-2.96Z"/>
      <path class="cls-1" d="M274.45,129.31c.84-46.58,2.66-109.17.55-128.64,0,0-173.66-1.15-173.67-.44-.26,15.71-.52,8.05-.32,23.76.07,5.5.3,10.99.25,16.49-.03,2.87-.23,5.75-.19,8.62.03,2.22.17,20.46.12,22.67-.11,4.65-.97,10.44-5.88,12.22-4.38,1.59-28.09-1.83-31.91-1.89-7.2-.11-14.4-.16-21.59.15-13.95.61-27.85,2.09-41.82,2.31.99,44.3,4.18,168.95,4.16,213.31l273.79-6.07c.41-41.62-8.05-122.74-3.5-162.5ZM41.75,175.97c-1.51-3.47,75.83-7.07,97.71-7.05,24.03.02,95.99,2.47,96.21,6.16.23,3.88-4.52,6.89-9.46,7.02-13.39.34-41.5.66-54.9.79-23.89.24-47.8.06-71.7-.03-9.48-.04-18.91-.3-28.38-.55-4.89-.13-16.8-1.62-17.86-1.45-5.19.83-9.98-1.12-11.63-4.9ZM209.82,233.9c-10.09,0-53.06,1.56-63.15,1.56-17.53,0-35.06-.06-52.59-.07-8.56,0-34.27,1.8-35.68-.42-.74-1.15-.23-2.67.95-3.7,1.36-1.18,2.67-.44,10.54-.51,35.67-.31,104.25-6.48,139.93-6.48,5.3,0,9.23,2.2,9.46,4.8.23,2.59-4.51,4.8-9.46,4.8ZM94.4,112.54c58.28.52,60.28-.61,118.48,1.58,17.99.68,17.49,8.48-1.91,9.87-5.09.36-97.47,2.63-155.71,1.11-5.3-.14-9.22-3.1-9.46-7.02-.22-3.7,32.33-5.69,48.59-5.55Z"/>
    </g>
  </g>
</svg>