<?xml version="1.0" encoding="UTF-8"?>
<svg id="Layer_2" data-name="Layer 2" xmlns="http://www.w3.org/2000/svg" viewBox="0 0 277.96 301.6">
  <defs>
    <style>
      .cls-1 {
        fill: #bedc46;
        stroke-width: 0px;
      }
    </style>
  </defs>
  <g id="Layer_2-2" data-name="Layer 2">
    <g>
      <path class="cls-1" d="M61.8,75.31c1.76-.08,20.75,1.4,28.36,1.98,1.7.13,3.17-1.25,3.2-3.02.15-6.82.45-38.51.38-42.17-.1-5.1-.29-10.2-.24-15.31.1-12.13.68-4.67.9-16.8-11.84,5.7-28.98,16.84-40.99,26.21C38.2,38.08,10.17,68.57.74,78.31c14.61-.32,37.25-1.95,61.05-3Z"/>
      <path class="cls-1" d="M274.45,130.92c.84-47.16,2.66-110.53.55-130.25,0,0-173.66-1.16-173.67-.44-.26,15.91-.52,8.15-.32,24.05.07,5.57.3,11.13.25,16.7-.03,2.91-.23,5.82-.19,8.72.03,2.24.17,20.71.12,22.96-.11,4.71-.97,10.57-5.88,12.37-4.38,1.61-28.09-1.85-31.91-1.91-7.2-.11-14.4-.16-21.59.16-13.95.61-27.85,2.11-41.82,2.34.99,44.85,4.18,171.06,4.16,215.97l273.79-6.15c.41-42.14-8.05-124.27-3.5-164.53ZM41.75,178.16c-1.51-3.51,75.83-7.15,97.71-7.13,24.03.02,95.99,2.5,96.21,6.24.23,3.93-4.52,6.98-9.46,7.1-13.39.35-41.5.67-54.9.8-23.89.24-47.8.06-71.7-.03-9.48-.04-18.91-.3-28.38-.55-4.89-.13-16.8-1.64-17.86-1.46-5.19.84-9.98-1.13-11.63-4.96ZM209.82,236.82c-10.09,0-53.06,1.58-63.15,1.58-17.53,0-35.06-.06-52.59-.07-8.56,0-34.27,1.82-35.68-.42-.74-1.17-.23-2.71.95-3.75,1.36-1.19,2.67-.45,10.54-.52,35.67-.31,104.25-6.56,139.93-6.56,5.3,0,9.23,2.23,9.46,4.86.23,2.63-4.51,4.86-9.46,4.86ZM94.4,113.94c58.28.53,60.28-.62,118.48,1.6,17.99.69,17.49,8.58-1.91,9.99-5.09.37-97.47,2.67-155.71,1.13-5.3-.14-9.22-3.14-9.46-7.1-.22-3.74,32.33-5.76,48.59-5.62Z"/>
    </g>
  </g>
</svg>